{
    "asset": {
        "version": "2.0",
        "generator": "Unity 2020.3.48f1c1 glTFast 6.2.0"
    },
    "nodes": [
        {
            "name": "player",
            "mesh": 0,
            "scale": [
                0.02,
                0.02,
                0.02
            ]
        },
        {
            "name": "book001",
            "mesh": 1,
            "translation": [
                0,
                0,
                0.08
            ],
            "rotation": [
                -0.7071068,
                0,
                0,
                0.7071068
            ],
            "scale": [
                0.417,
                0.2,
                0.368
            ]
        },
        {
            "name": "main",
            "children": [
                0,
                1
            ]
        }
    ],
    "buffers": [
        {
            "uri": "main.bin",
            "byteLength": 34864
        }
    ],
    "bufferViews": [
        {
            "buffer": 0,
            "byteLength": 4608
        },
        {
            "buffer": 0,
            "byteLength": 72,
            "byteOffset": 4608
        },
        {
            "buffer": 0,
            "byteLength": 1344,
            "byteOffset": 4680,
            "byteStride": 56
        },
        {
            "buffer": 0,
            "byteLength": 28840,
            "byteOffset": 6024,
            "byteStride": 56
        }
    ],
    "accessors": [
        {
            "bufferView": 3,
            "componentType": 5126,
            "count": 515,
            "type": "VEC3",
            "max": [
                0.5,
                0.5,
                0.5
            ],
            "min": [
                -0.5,
                -0.5,
                -0.5
            ]
        },
        {
            "bufferView": 3,
            "componentType": 5126,
            "count": 515,
            "type": "VEC3",
            "byteOffset": 12
        },
        {
            "bufferView": 3,
            "componentType": 5126,
            "count": 515,
            "type": "VEC4",
            "byteOffset": 24
        },
        {
            "bufferView": 3,
            "componentType": 5126,
            "count": 515,
            "type": "VEC2",
            "byteOffset": 40
        },
        {
            "bufferView": 3,
            "componentType": 5126,
            "count": 515,
            "type": "VEC2",
            "byteOffset": 48
        },
        {
            "bufferView": 0,
            "componentType": 5123,
            "count": 2304,
            "type": "SCALAR"
        },
        {
            "bufferView": 2,
            "componentType": 5126,
            "count": 24,
            "type": "VEC3",
            "max": [
                0.5,
                0.5,
                0.5
            ],
            "min": [
                -0.5,
                -0.5,
                -0.5
            ]
        },
        {
            "bufferView": 2,
            "componentType": 5126,
            "count": 24,
            "type": "VEC3",
            "byteOffset": 12
        },
        {
            "bufferView": 2,
            "componentType": 5126,
            "count": 24,
            "type": "VEC4",
            "byteOffset": 24
        },
        {
            "bufferView": 2,
            "componentType": 5126,
            "count": 24,
            "type": "VEC2",
            "byteOffset": 40
        },
        {
            "bufferView": 2,
            "componentType": 5126,
            "count": 24,
            "type": "VEC2",
            "byteOffset": 48
        },
        {
            "bufferView": 1,
            "componentType": 5123,
            "count": 36,
            "type": "SCALAR"
        }
    ],
    "images": [
        {
            "name": "book001.jpg",
            "uri": "book001.jpg",
            "mimeType": "image/jpeg"
        },
        {
            "name": "book001_haptic.png",
            "uri": "book001_haptic.png",
            "mimeType": "image/png"
        }
    ],
    "materials": [
        {
            "name": "Default-Material",
            "pbrMetallicRoughness": {
                "metallicFactor": 0,
                "roughnessFactor": 0.5
            }
        },
        {
            "name": "book001",
            "pbrMetallicRoughness": {
                "metallicFactor": 0,
                "roughnessFactor": 0.5,
                "baseColorTexture": {
                    "index": 0
                }
            }
        }
    ],
    "meshes": [
        {
            "name": "Sphere",
            "primitives": [
                {
                    "attributes": {
                        "POSITION": 0,
                        "NORMAL": 1,
                        "TANGENT": 2,
                        "TEXCOORD_0": 3,
                        "TEXCOORD_1": 4
                    },
                    "indices": 5,
                    "material": 0
                }
            ]
        },
        {
            "name": "Cube",
            "primitives": [
                {
                    "attributes": {
                        "POSITION": 6,
                        "NORMAL": 7,
                        "TANGENT": 8,
                        "TEXCOORD_0": 9,
                        "TEXCOORD_1": 10
                    },
                    "indices": 11,
                    "material": 1
                }
            ],
            "extensions": {
                "MPEG_material_haptic": 0
            }
        }
    ],
    "scene": 0,
    "scenes": [
        {
            "name": "main",
            "nodes": [
                2
            ],
            "extensions": {
                "MPEG_scene_interactivity": 0
            }
        }
    ],
    "textures": [
        {
            "source": 0
        },
        {
            "source": 1
        }
    ]
}